<svg xmlns="http://www.w3.org/2000/svg" viewBox="0 0 403 403"><defs><style>.cls-1,.cls-2{fill:none;stroke:#f5f0df;stroke-miterlimit:10;}.cls-1{stroke-width:3px;}.cls-2{stroke-width:2px;}.cls-3{fill:#f5f0df;}</style></defs><title>logo</title><g id="circle_cross" data-name="circle cross"><circle class="cls-1" cx="201.5" cy="201.5" r="200"/><line class="cls-2" x1="102.86" y1="102.86" x2="300.14" y2="300.14"/><line class="cls-2" x1="300.14" y1="102.86" x2="102.86" y2="300.14"/></g><g id="Letters"><path class="cls-3" d="M156.38,252.09h15.49l14.48,38.85,14.14-38.85h14.95V255h-1.27a8,8,0,0,0-3.07.39,2.72,2.72,0,0,0-1.25,1.37,8,8,0,0,0-.46,3.2v32.34a13.08,13.08,0,0,0,.37,4,2.74,2.74,0,0,0,1.23,1.39,7.42,7.42,0,0,0,3.18.47h1.27v2.95H196.7v-2.95H198a8.71,8.71,0,0,0,2.61-.28A3.14,3.14,0,0,0,202,297a2.56,2.56,0,0,0,.61-1.36,19.34,19.34,0,0,0,.18-2.25v-36.1l-16,43.87h-3.51l-16.12-43.24v34.74a9.29,9.29,0,0,0,.46,3.59,3.21,3.21,0,0,0,1.42,1.45,8.15,8.15,0,0,0,3.46.51h1.13v2.95H156.38v-2.95h1a8.76,8.76,0,0,0,3.57-.53,3.21,3.21,0,0,0,1.53-1.49,10.58,10.58,0,0,0,.45-3.82v-32a10.41,10.41,0,0,0-.38-3.56,2.54,2.54,0,0,0-1.29-1.29,8,8,0,0,0-3.18-.43h-1.68Z" transform="translate(-78.5 -78.5)"/><path class="cls-3" d="M353.92,252.09h23.33q8.53,0,11.71.77a14.35,14.35,0,0,1,7.41,4.08,10.64,10.64,0,0,1,1.28,12.45,12.34,12.34,0,0,1-4.18,4.06,17.84,17.84,0,0,1-4.79,1.86A23.08,23.08,0,0,1,394.5,277a11.43,11.43,0,0,1,4.77,4.22,11.24,11.24,0,0,1,1.76,6.19,11.73,11.73,0,0,1-1.73,6.19,13.42,13.42,0,0,1-4.86,4.68,19.05,19.05,0,0,1-7.33,2.34,71.18,71.18,0,0,1-8.62.51H353.92v-2.95h1.65a5.3,5.3,0,0,0,3.27-.74,4.09,4.09,0,0,0,1.27-3.37V260a9.27,9.27,0,0,0-.39-3.29,2.52,2.52,0,0,0-1.16-1.28,7.6,7.6,0,0,0-3-.39h-1.65Zm12.76,3.9v18h9a40.61,40.61,0,0,0,8.62-.6,10.4,10.4,0,0,0,5.55-3.24,8.81,8.81,0,0,0,1.92-5.87,7.42,7.42,0,0,0-1.75-5,8.76,8.76,0,0,0-4.66-2.76,41.69,41.69,0,0,0-7.89-.46Zm0,21.34v16.1a10.64,10.64,0,0,0,.21,2.89,1.62,1.62,0,0,0,1.13.87,17.25,17.25,0,0,0,3.37.18h4.78a45,45,0,0,0,10.14-.79,10,10,0,0,0,5.19-3.34,9.21,9.21,0,0,0,2.14-6.14,8.75,8.75,0,0,0-1.74-5.36,9.68,9.68,0,0,0-4.81-3.37q-3.07-1-10.92-1Z" transform="translate(-78.5 -78.5)"/><path class="cls-3" d="M254.84,167h17.9v2.95h-1.38a12.17,12.17,0,0,0-2.39.14,2,2,0,0,0-1.07.69,1.76,1.76,0,0,0-.37,1.08,8.48,8.48,0,0,0,.71,2.77l13,34,13.17-34a8.41,8.41,0,0,0,.7-2.73,1.64,1.64,0,0,0-.7-1.49,5.93,5.93,0,0,0-2.89-.46h-1.61V167h15.23v2.95a7.7,7.7,0,0,0-2.9.36,3.89,3.89,0,0,0-1.53,1.09,14.79,14.79,0,0,0-1.65,3.23L282.38,216h-5l-16.52-41.41a19.86,19.86,0,0,0-1.13-2.55,4.82,4.82,0,0,0-1.11-1.21,4.15,4.15,0,0,0-1.45-.69,9.62,9.62,0,0,0-2.36-.23Z" transform="translate(-78.5 -78.5)"/><path class="cls-3" d="M254.78,349.91v-3h17.5q12,0,16.77,1.51a21.81,21.81,0,0,1,11.36,8.26,26.82,26.82,0,0,1,2.44,26.35,22.27,22.27,0,0,1-6.24,8.17,19,19,0,0,1-7.7,3.68,39.24,39.24,0,0,1-9.07,1.07H254.78v-2.95h2l.67,0a3.82,3.82,0,0,0,2.13-.53,3,3,0,0,0,1.18-1.4,12,12,0,0,0,.24-3.1v-32.8a11.24,11.24,0,0,0-.35-3.61,2.81,2.81,0,0,0-1.58-1.52A22.92,22.92,0,0,0,254.78,349.91Zm12.76,42.33h10.63a40.75,40.75,0,0,0,5.26-.56,18.9,18.9,0,0,0,5.26-1.38,14.66,14.66,0,0,0,4.51-3.85,19,19,0,0,0,3.36-6.37,28.25,28.25,0,0,0,1.18-8.5,25.91,25.91,0,0,0-1.18-8.23,18.81,18.81,0,0,0-3.56-6.26,16.78,16.78,0,0,0-5.28-4.24,18.69,18.69,0,0,0-6.49-1.85q-1.94-.18-6.48-.18h-7.21Z" transform="translate(-78.5 -78.5)"/></g></svg>